<svg width="43" height="44" viewBox="0 0 43 44" fill="none" xmlns="http://www.w3.org/2000/svg">
<ellipse cx="21.5" cy="22.091" rx="21.5" ry="21.909" fill="#AF2D2D"/>
<path d="M28.7148 15.0516C28.2035 15.0516 27.7024 15.1193 27.2166 15.2489C26.286 12.6905 24.0105 11 21.4232 11C19.1478 11 17.0462 12.42 15.9468 14.6572C15.5326 14.5219 15.0929 14.4487 14.6838 14.4487C12.1016 14.4487 10 16.7703 10 19.6217C10 22.4731 12.1016 24.7947 14.6838 24.7947L17.4041 24.7778C17.8797 27.0769 19.746 28.8013 21.9703 28.8013H28.7148C32.1561 28.8013 34.9531 25.7076 34.9531 21.9096C34.9531 18.1228 32.1561 15.0516 28.7148 15.0516ZM17.2916 23.617C17.2916 23.6226 17.2916 23.6283 17.2916 23.6395L14.6838 23.6621C12.664 23.6621 11.0227 21.8476 11.0227 19.6161C11.0227 17.3846 12.664 15.5701 14.6838 15.5701C15.1082 15.5701 15.5889 15.6771 16.0082 15.8687C16.2638 15.9871 16.5553 15.8575 16.6729 15.5813C17.5319 13.4794 19.4034 12.1214 21.4283 12.1214C23.5708 12.1214 25.4576 13.502 26.2502 15.5982C24.9667 16.2012 23.8929 17.2719 23.2282 18.6637C22.8294 18.5454 22.4152 18.489 21.9754 18.489C20.7278 18.489 19.5517 19.0187 18.6671 19.9824C17.7825 20.9516 17.2916 22.242 17.2916 23.617ZM28.7148 27.663H21.9703C19.9506 27.663 18.3092 25.8485 18.3092 23.617C18.3092 21.4137 19.9506 19.6161 21.9703 19.6161C22.451 19.6161 22.8907 19.7006 23.3049 19.8809C23.5606 19.988 23.8469 19.8584 23.9594 19.5766C24.7724 17.5085 26.6388 16.173 28.7148 16.173C31.5936 16.173 33.9304 18.7426 33.9304 21.8983C33.9304 25.0765 31.5885 27.663 28.7148 27.663Z" fill="#E9E9E9"/>
<path d="M15.162 31.1648L14.1496 32.2862C13.9501 32.506 13.9501 32.861 14.1496 33.0808C14.2518 33.1878 14.3797 33.2442 14.5126 33.2442C14.6456 33.2442 14.7785 33.1878 14.8705 33.0808L15.883 31.9594C16.0824 31.7396 16.0824 31.3846 15.883 31.1648C15.6836 30.9451 15.3614 30.9451 15.162 31.1648Z" fill="#E9E9E9"/>
<path d="M21.162 31.1648L20.1496 32.2862C19.9501 32.506 19.9501 32.861 20.1496 33.0808C20.2518 33.1878 20.3797 33.2442 20.5126 33.2442C20.6456 33.2442 20.7785 33.1878 20.8705 33.0808L21.883 31.9594C22.0824 31.7396 22.0824 31.3846 21.883 31.1648C21.6836 30.9451 21.3614 30.9451 21.162 31.1648Z" fill="#E9E9E9"/>
<path d="M28.162 31.1648L27.1496 32.2862C26.9501 32.506 26.9501 32.861 27.1496 33.0808C27.2518 33.1878 27.3797 33.2442 27.5126 33.2442C27.6456 33.2442 27.7785 33.1878 27.8705 33.0808L28.883 31.9594C29.0824 31.7396 29.0824 31.3846 28.883 31.1648C28.6836 30.9451 28.3614 30.9451 28.162 31.1648Z" fill="#E9E9E9"/>
<path d="M31.162 31.1648L30.1496 32.2862C29.9501 32.506 29.9501 32.861 30.1496 33.0808C30.2518 33.1878 30.3797 33.2442 30.5126 33.2442C30.6456 33.2442 30.7785 33.1878 30.8705 33.0808L31.883 31.9594C32.0824 31.7396 32.0824 31.3846 31.883 31.1648C31.6836 30.9451 31.3614 30.9451 31.162 31.1648Z" fill="#E9E9E9"/>
<path d="M18.162 31.1648L17.1496 32.2862C16.9501 32.506 16.9501 32.861 17.1496 33.0808C17.2518 33.1878 17.3797 33.2442 17.5126 33.2442C17.6456 33.2442 17.7785 33.1878 17.8705 33.0808L18.883 31.9594C19.0824 31.7396 19.0824 31.3846 18.883 31.1648C18.6836 30.9451 18.3614 30.9451 18.162 31.1648Z" fill="#E9E9E9"/>
<path d="M25.5506 32.8898L23.7865 33.2053L25.5199 30.9231C25.6989 30.6808 25.6682 30.3258 25.4535 30.1286C25.2336 29.9313 24.9114 29.9651 24.7325 30.2018L22.1196 33.6449C21.9815 33.8252 21.961 34.0844 22.0684 34.2873C22.1758 34.4901 22.3855 34.6028 22.5951 34.5634L24.3592 34.2478L22.6258 36.53C22.4468 36.7723 22.4775 37.1273 22.6923 37.3246C22.7894 37.4091 22.9019 37.4542 23.0195 37.4542C23.1678 37.4542 23.311 37.3809 23.4132 37.2513L26.0261 33.8083C26.1642 33.628 26.1847 33.3687 26.0773 33.1659C25.9699 32.963 25.7603 32.8503 25.5506 32.8898Z" fill="#E9E9E9"/>
</svg>
