<svg width="20" height="20" viewBox="0 0 20 20" fill="none" xmlns="http://www.w3.org/2000/svg">
<path d="M4.58718 9.16675H0.417027C0.186835 9.16675 0 9.35343 0 9.58343V19.5834C0 19.8134 0.186835 20 0.417027 20H4.58718C4.81737 20 5.0042 19.8134 5.0042 19.5834V9.58339C5.00416 9.35339 4.81819 9.16675 4.58718 9.16675Z" fill="#F05454"/>
<path d="M12.0767 0H7.90657C7.67638 0 7.48955 0.186679 7.48955 0.416679V19.5833C7.48955 19.8133 7.67638 20 7.90657 20H12.0767C12.3069 20 12.4938 19.8133 12.4938 19.5833V0.416679C12.4938 0.186679 12.3069 0 12.0767 0Z" fill="#F05454"/>
<path d="M19.583 4.16675H15.4128C15.1826 4.16675 14.9958 4.35343 14.9958 4.58343V19.5834C14.9958 19.8134 15.1826 20.0001 15.4128 20.0001H19.583C19.8132 20.0001 20 19.8134 20 19.5834V4.58343C20 4.35339 19.8132 4.16675 19.583 4.16675Z" fill="#F05454"/>
</svg>
