<svg width="40" height="48" viewBox="0 0 18 21" fill="none" xmlns="http://www.w3.org/2000/svg">
<path d="M16.4156 19.7293H1.58449C0.926503 19.7293 0.393066 19.1959 0.393066 18.5379V1.58449C0.393066 0.926503 0.926503 0.393066 1.58449 0.393066H16.4156C17.0736 0.393066 17.607 0.926503 17.607 1.58449V18.5379C17.607 19.1959 17.0736 19.7293 16.4156 19.7293Z" fill="#6AE6A3"/>
<path d="M12.4608 11.5779V17.6071H10.8888V11.5779H12.4608Z" fill="#FF7D99"/>
<path d="M15.605 11.5779V17.6071H14.0329V11.5779H15.605Z" fill="#66E1F8"/>
<path d="M4.08911 3.65894H9.54437V9.11419H4.08911V3.65894Z" fill="#FF7D99"/>
<path d="M5.99146 5.56152H7.64211V7.21218H5.99146V5.56152Z" fill="white"/>
<path d="M16.4156 0H10.7686C10.5515 0 10.3755 0.175952 10.3755 0.393013C10.3755 0.610074 10.5515 0.786026 10.7686 0.786026H16.4156C16.8558 0.786026 17.214 1.14418 17.214 1.58443V18.5378C17.214 18.9781 16.8558 19.3362 16.4156 19.3362H1.58443C1.14418 19.3362 0.786026 18.9781 0.786026 18.5378V1.58443C0.786026 1.14418 1.14418 0.786026 1.58443 0.786026H7.23144C7.44846 0.786026 7.62445 0.610074 7.62445 0.393013C7.62445 0.175952 7.44846 0 7.23144 0H1.58443C0.710804 0 0 0.710764 0 1.58443V18.5378C0 19.4115 0.710804 20.1223 1.58443 20.1223H16.4155C17.2892 20.1223 18 19.4115 18 18.5378V1.58443C18 0.710764 17.2892 0 16.4156 0Z" fill="black"/>
<path d="M7.20974 3.26599V1.96503C7.20974 1.74797 7.03374 1.57202 6.81672 1.57202C6.5997 1.57202 6.42371 1.74797 6.42371 1.96503V3.26599H5.26141V2.68476C5.26141 2.4677 5.08542 2.29175 4.8684 2.29175C4.65138 2.29175 4.47539 2.4677 4.47539 2.68476V3.26599H4.08909C3.87207 3.26599 3.69608 3.44194 3.69608 3.659V4.04533H3.11485C2.89783 4.04533 2.72184 4.22128 2.72184 4.43834C2.72184 4.65541 2.89783 4.83136 3.11485 4.83136H3.69608V5.99365H2.39509C2.17807 5.99365 2.00208 6.16961 2.00208 6.38667C2.00208 6.60373 2.17807 6.77968 2.39509 6.77968H3.69608V7.94198H3.11485C2.89783 7.94198 2.72184 8.11793 2.72184 8.33499C2.72184 8.55205 2.89783 8.728 3.11485 8.728H3.69608V9.1143C3.69608 9.33136 3.87207 9.50731 4.08909 9.50731H4.47539V10.0885C4.47539 10.3056 4.65138 10.4816 4.8684 10.4816C5.08542 10.4816 5.26141 10.3056 5.26141 10.0885V9.50731H6.42371V10.8083C6.42371 11.0253 6.5997 11.2013 6.81672 11.2013C7.03374 11.2013 7.20974 11.0253 7.20974 10.8083V9.50731H8.37199V10.0885C8.37199 10.3056 8.54798 10.4816 8.76501 10.4816C8.98203 10.4816 9.15802 10.3056 9.15802 10.0885V9.50731H9.54431C9.76133 9.50731 9.93732 9.33136 9.93732 9.1143V8.728H10.5186C10.7356 8.728 10.9116 8.55205 10.9116 8.33499C10.9116 8.11793 10.7356 7.94198 10.5186 7.94198H9.93736V6.77968H11.2384C11.4554 6.77968 11.6314 6.60373 11.6314 6.38667C11.6314 6.16961 11.4554 5.99365 11.2384 5.99365H9.93736V4.83136H10.5186C10.7356 4.83136 10.9116 4.65541 10.9116 4.43834C10.9116 4.22128 10.7356 4.04533 10.5186 4.04533H9.93736V3.659C9.93736 3.44194 9.76137 3.26599 9.54435 3.26599H9.15806V2.68476C9.15806 2.4677 8.98207 2.29175 8.76504 2.29175C8.54802 2.29175 8.37203 2.4677 8.37203 2.68476V3.26599H7.20974ZM4.48211 8.72125V4.05201H9.15134V8.72125H4.48211Z" fill="black"/>
<path d="M7.64206 5.16846H5.9914C5.77438 5.16846 5.59839 5.34441 5.59839 5.56147V7.21213C5.59839 7.42919 5.77438 7.60514 5.9914 7.60514H7.64206C7.85908 7.60514 8.03507 7.42919 8.03507 7.21213V5.56147C8.03507 5.34441 7.85912 5.16846 7.64206 5.16846ZM7.24904 6.81911H6.38441V5.95448H7.24904V6.81911Z" fill="black"/>
<path d="M2.39509 17.9999H8.42434C8.64136 17.9999 8.81736 17.8239 8.81736 17.6069C8.81736 17.3898 8.64136 17.2139 8.42434 17.2139H2.39509C2.17807 17.2139 2.00208 17.3898 2.00208 17.6069C2.00208 17.8239 2.17807 17.9999 2.39509 17.9999Z" fill="black"/>
<path d="M2.39509 14.5414H5.08479C5.30181 14.5414 5.4778 14.3654 5.4778 14.1484C5.4778 13.9313 5.30181 13.7554 5.08479 13.7554H2.39509C2.17807 13.7554 2.00208 13.9313 2.00208 14.1484C2.00208 14.3654 2.17807 14.5414 2.39509 14.5414V14.5414Z" fill="black"/>
<path d="M8.42442 13.7554H7.75532C7.5383 13.7554 7.3623 13.9313 7.3623 14.1484C7.3623 14.3654 7.5383 14.5414 7.75532 14.5414H8.42442C8.64144 14.5414 8.81744 14.3654 8.81744 14.1484C8.81744 13.9313 8.64144 13.7554 8.42442 13.7554Z" fill="black"/>
<path d="M2.39509 16.2706H3.27563C3.49266 16.2706 3.66865 16.0947 3.66865 15.8776C3.66865 15.6606 3.49266 15.4846 3.27563 15.4846H2.39509C2.17807 15.4846 2.00208 15.6606 2.00208 15.8776C2.00208 16.0947 2.17807 16.2706 2.39509 16.2706Z" fill="black"/>
<path d="M8.42436 15.4846H5.46906C5.25204 15.4846 5.07605 15.6606 5.07605 15.8776C5.07605 16.0947 5.25204 16.2706 5.46906 16.2706H8.42436C8.64139 16.2706 8.81738 16.0947 8.81738 15.8776C8.81738 15.6606 8.64139 15.4846 8.42436 15.4846Z" fill="black"/>
<path d="M13.2032 4.96132H15.6049C15.822 4.96132 15.998 4.78537 15.998 4.56831C15.998 4.35124 15.822 4.17529 15.6049 4.17529H13.2032C12.9862 4.17529 12.8102 4.35124 12.8102 4.56831C12.8102 4.78537 12.9862 4.96132 13.2032 4.96132Z" fill="black"/>
<path d="M13.2032 3.07777H15.6049C15.822 3.07777 15.998 2.90182 15.998 2.68476C15.998 2.4677 15.822 2.29175 15.6049 2.29175H13.2032C12.9862 2.29175 12.8102 2.4677 12.8102 2.68476C12.8102 2.90182 12.9862 3.07777 13.2032 3.07777Z" fill="black"/>
<path d="M13.2032 8.72792H15.6049C15.822 8.72792 15.998 8.55197 15.998 8.33491C15.998 8.11785 15.822 7.94189 15.6049 7.94189H13.2032C12.9862 7.94189 12.8102 8.11785 12.8102 8.33491C12.8102 8.55197 12.9862 8.72792 13.2032 8.72792Z" fill="black"/>
<path d="M13.2032 6.84438H15.6049C15.822 6.84438 15.998 6.66842 15.998 6.45136C15.998 6.2343 15.822 6.05835 15.6049 6.05835H13.2032C12.9862 6.05835 12.8102 6.2343 12.8102 6.45136C12.8102 6.66842 12.9862 6.84438 13.2032 6.84438Z" fill="black"/>
<path d="M12.4608 11.1848H10.8887C10.6717 11.1848 10.4957 11.3608 10.4957 11.5778V17.6071C10.4957 17.8241 10.6717 18.0001 10.8887 18.0001H12.4608C12.6778 18.0001 12.8538 17.8241 12.8538 17.6071V11.5778C12.8538 11.3608 12.6778 11.1848 12.4608 11.1848ZM12.0678 17.2141H11.2818V11.9708H12.0678V17.2141Z" fill="black"/>
<path d="M15.605 11.1848H14.0329C13.8159 11.1848 13.6399 11.3608 13.6399 11.5778V17.6071C13.6399 17.8241 13.8159 18.0001 14.0329 18.0001H15.605C15.822 18.0001 15.998 17.8241 15.998 17.6071V11.5778C15.998 11.3608 15.822 11.1848 15.605 11.1848ZM15.2119 17.2141H14.4259V11.9708H15.2119V17.2141Z" fill="black"/>
<path d="M8.99995 0.786026C9.217 0.786026 9.39296 0.610068 9.39296 0.393013C9.39296 0.175958 9.217 0 8.99995 0C8.78289 0 8.60693 0.175958 8.60693 0.393013C8.60693 0.610068 8.78289 0.786026 8.99995 0.786026Z" fill="black"/>
</svg>
