<svg width="62" height="70" viewBox="0 0 62 70" fill="none" xmlns="http://www.w3.org/2000/svg">
<ellipse cx="32.7137" cy="29.0515" rx="29.2863" ry="29.0515" fill="#F05454"/>
<path d="M4.7896 63.3669C2.74637 60.8719 12.8235 45.9013 12.8235 45.9013L18.1042 51.1396L23.3848 56.378C23.3848 56.378 6.83283 65.862 4.7896 63.3669Z" fill="#F05454"/>
<path d="M50.2698 40.8323L33.7878 10.878C33.5724 10.4864 33.1607 10.243 32.7137 10.243C32.2667 10.243 31.8552 10.4864 31.6396 10.878L15.1576 40.8323C14.9486 41.2121 14.9558 41.674 15.1763 42.0473C15.3969 42.4205 15.7981 42.6494 16.2316 42.6494H49.1958C49.6293 42.6494 50.0306 42.4205 50.2511 42.0473C50.4717 41.674 50.4788 41.2121 50.2698 40.8323ZM18.3055 40.1974L32.7137 14.0119L47.122 40.1974H18.3055Z" fill="#F9F9F9"/>
<path d="M31.1774 22.7711V31.6321C31.1774 32.4804 31.8653 33.1684 32.7138 33.1684C33.5621 33.1684 34.2501 32.4804 34.2501 31.6321V22.7711C34.2501 21.9226 33.5621 21.2347 32.7138 21.2347C31.8653 21.2347 31.1774 21.9227 31.1774 22.7711Z" fill="#F9F9F9"/>
<path d="M32.7137 34.7635C31.8216 34.7635 31.0955 35.4891 31.0955 36.3817C31.0955 37.274 31.8216 37.9999 32.7137 37.9999C33.6059 37.9999 34.3319 37.274 34.3319 36.3817C34.3319 35.4892 33.6058 34.7635 32.7137 34.7635Z" fill="#F9F9F9"/>
</svg>
