<svg width="46" height="45" viewBox="0 0 46 45" fill="none" xmlns="http://www.w3.org/2000/svg">
<ellipse cx="23" cy="22.5" rx="23" ry="22.5" fill="#AF2D2D"/>
<path d="M23 39.2553C19.1548 39.2553 15.5427 37.7956 12.8291 35.145C10.1181 32.4966 8.625 28.9739 8.625 25.2257C8.625 23.065 9.70763 20.2384 11.9347 16.584C13.482 14.0451 15.5364 11.187 18.0408 8.08939C19.2456 6.59928 21.0531 5.74469 23 5.74469C24.9469 5.74469 26.7544 6.59928 27.9592 8.08926C30.4636 11.1869 32.518 14.045 34.0653 16.5839C36.2924 20.2383 37.375 23.065 37.375 25.2257C37.375 28.974 35.8819 32.4967 33.1709 35.145C30.4573 37.7956 26.8452 39.2553 23 39.2553ZM23 8.36271C21.8817 8.36271 20.8435 8.85359 20.1515 9.70942C14.5338 16.6578 11.3119 22.3132 11.3119 25.2257C11.3119 31.518 16.5552 36.6373 23 36.6373C29.4448 36.6373 34.6881 31.518 34.6881 25.2257C34.6881 22.3133 31.4662 16.6578 25.8485 9.70942C25.1565 8.85352 24.1183 8.36271 23 8.36271ZM15.6782 26.7543C15.7042 26.7548 15.6522 26.7543 15.6782 26.7543V26.7543ZM29.8517 24.1363C29.8493 24.1363 29.8469 24.1363 29.8446 24.1363C29.5424 24.1363 29.2582 24.0158 29.0455 23.809C28.2959 23.0805 27.2761 22.6926 26.2914 22.6985C25.3226 22.7044 24.3423 23.0918 23.6045 23.809C23.3873 24.0201 23.0836 24.1329 22.7984 24.136C22.5049 24.1392 22.2155 24.0259 21.9923 23.809C21.2272 23.0652 20.1761 22.6776 19.1711 22.6994C18.223 22.7199 17.2735 23.1071 16.5513 23.809C16.332 24.0222 16.0154 24.1417 15.7046 24.1361C14.9637 24.1202 14.3495 24.6963 14.3349 25.419C14.3203 26.1419 14.9364 26.74 15.6782 26.7543C16.6961 26.7542 17.7093 26.3443 18.4322 25.6416C18.6479 25.432 18.9551 25.3192 19.2383 25.3147C19.5337 25.31 19.8869 25.4233 20.1116 25.6416C21.5986 27.0871 23.9977 27.0876 25.4854 25.6416C25.6997 25.4333 26.0101 25.3206 26.2915 25.3148C26.5887 25.3087 26.8715 25.422 27.0975 25.6416C27.8184 26.3423 28.833 26.7543 29.8516 26.7543C30.5936 26.7523 31.1972 26.1646 31.1951 25.4416C31.193 24.7199 30.5919 24.1363 29.8517 24.1363Z" fill="#E9E9E9"/>
</svg>
