<svg width="46" height="45" viewBox="0 0 46 45" fill="none" xmlns="http://www.w3.org/2000/svg">
<ellipse cx="23" cy="22.5" rx="23" ry="22.5" fill="#AF2D2D"/>
<path d="M33.7388 30.7012C33.7956 30.4185 33.6451 30.1349 33.379 30.0235L16.0238 22.7579C15.7373 22.6378 15.4058 22.7545 15.2577 23.028L11.3221 30.2936C11.2205 30.4813 11.2251 30.7085 11.3343 30.8918C11.4435 31.0752 11.6411 31.1875 11.8545 31.1875H33.1452C33.4337 31.1875 33.6821 30.984 33.7388 30.7012ZM12.871 29.9765L16.0615 24.0864L30.1311 29.9765H12.871Z" fill="#E9E9E9"/>
<path d="M22.5 34.8203C22.8344 34.8203 23.1055 34.5492 23.1055 34.2148C23.1055 33.8805 22.8344 33.6094 22.5 33.6094C22.1656 33.6094 21.8945 33.8805 21.8945 34.2148C21.8945 34.5492 22.1656 34.8203 22.5 34.8203Z" fill="#E9E9E9"/>
<path d="M25.4296 7.74617C24.8466 6.6691 23.7241 6 22.5 6C21.2759 6 20.1534 6.6691 19.5723 7.74296L7.40082 29.9058C7.13859 30.3892 7 30.9371 7 31.4902C7 33.3264 8.49387 34.8203 10.3301 34.8203H19.7754C20.1097 34.8203 20.3809 34.5492 20.3809 34.2148C20.3809 33.8804 20.1097 33.6094 19.7754 33.6094H10.3301C9.16158 33.6094 8.21094 32.6587 8.21094 31.4902C8.21094 31.1382 8.29885 30.7899 8.46378 30.486L20.6355 8.32258C21.0066 7.63688 21.721 7.21094 22.5 7.21094C23.279 7.21094 23.9935 7.63688 24.3663 8.32585L36.5348 30.4833C36.7011 30.7899 36.7891 31.1382 36.7891 31.4902C36.7891 32.6587 35.8384 33.6094 34.6699 33.6094H25.2246C24.8903 33.6094 24.6191 33.8804 24.6191 34.2148C24.6191 34.5492 24.8903 34.8203 25.2246 34.8203H34.6699C36.5061 34.8203 38 33.3264 38 31.4902C38 30.9371 37.8614 30.3892 37.5977 29.9031L25.4296 7.74617Z" fill="#E9E9E9"/>
</svg>
