<svg width="46" height="45" viewBox="0 0 46 45" fill="none" xmlns="http://www.w3.org/2000/svg">
<ellipse cx="23" cy="22.5" rx="23" ry="22.5" fill="#AF2D2D"/>
<path d="M34.701 11.0575C34.5176 10.9656 34.2982 10.985 34.1339 11.1075L25.488 17.555L18.2732 12.9719C18.0949 12.8586 17.8671 12.8593 17.6894 12.9735L10.2489 17.7568C10.0937 17.8566 10 18.0284 10 18.2127V25.5104V26.1372V33.4348C10 33.7341 10.2427 33.9768 10.542 33.9768H34.458C34.7573 33.9768 35 33.7341 35 33.4348V26.1372V18.8395V11.5419C35 11.3369 34.8843 11.1494 34.701 11.0575ZM33.916 16.0854C33.8981 16.1159 33.8829 16.1486 33.871 16.1833L32.7504 19.4368L28.6829 22.47L31.4383 14.47L33.916 12.6223V16.0854ZM18.8729 14.6371L21.3531 16.2126L19.6538 21.1465L18.2732 20.2693C18.0949 20.1562 17.8671 20.1568 17.6894 20.271L16.7172 20.896L18.8729 14.6371ZM22.2937 16.8102L24.774 18.3857L23.0747 23.3196L20.5945 21.7441L22.2937 16.8102ZM25.8285 18.6524C25.8311 18.6506 25.834 18.6492 25.8366 18.6472L29.8956 15.6204L27.1402 23.6204L25.488 24.8526L24.0153 23.917L25.8285 18.6524ZM17.9028 14.125L15.2447 21.8427L11.3622 24.3388L14.0203 16.621L17.9028 14.125ZM12.5478 17.5677L11.084 21.8178V18.5087L12.5478 17.5677Z" fill="#E9E9E9"/>
</svg>
