<svg width="268" height="203" viewBox="0 0 268 203" fill="none" xmlns="http://www.w3.org/2000/svg">
<path d="M246.035 87.7116C322.957 113.251 177.307 198.189 124.002 198.189C-61.0719 225.346 15.8495 130.585 15.8495 87.7116C15.8495 24.268 57.9652 3.96078 111.27 3.96078C264.38 -18.3613 123.635 59.6996 246.035 87.7116Z" fill="#CE6262" fill-opacity="0.13"/>
<circle cx="22" cy="173" r="3" fill="white" stroke="#F05454" stroke-width="2"/>
<rect x="74" y="53" width="97.4954" height="101.106" rx="30" fill="#F05454"/>
<path d="M157.463 129.775H154.03V127.486C154.03 126.799 153.573 126.341 152.886 126.341C152.199 126.341 151.742 126.799 151.742 127.486V129.775H147.164V127.486C147.164 126.799 146.706 126.341 146.02 126.341C145.333 126.341 144.875 126.799 144.875 127.486V129.775H140.298V127.486C140.298 126.799 139.84 126.341 139.153 126.341C138.467 126.341 138.009 126.799 138.009 127.486V129.775H133.431V127.486C133.431 126.799 132.974 126.341 132.287 126.341C131.6 126.341 131.143 126.799 131.143 127.486V129.775H126.565V127.486C126.565 126.799 126.107 126.341 125.421 126.341C124.734 126.341 124.276 126.799 124.276 127.486V129.775H119.699V127.486C119.699 126.799 119.241 126.341 118.555 126.341C117.868 126.341 117.41 126.799 117.41 127.486V129.775H112.833V127.486C112.833 126.799 112.375 126.341 111.688 126.341C111.002 126.341 110.544 126.799 110.544 127.486V129.775H105.966V127.486C105.966 126.799 105.509 126.341 104.822 126.341C104.135 126.341 103.678 126.799 103.678 127.486V129.775H99.1001V127.486C99.1001 126.799 98.6423 126.341 97.9557 126.341C97.269 126.341 96.8113 126.799 96.8113 127.486V129.775H92.2338V64.5449C92.2338 63.8583 91.776 63.4005 91.0894 63.4005C90.4028 63.4005 89.945 63.8583 89.945 64.5449V130.919C89.945 131.606 90.4028 132.063 91.0894 132.063H157.463C158.15 132.063 158.608 131.606 158.608 130.919C158.608 130.232 158.15 129.775 157.463 129.775Z" fill="white"/>
<path d="M111.345 102.653L105.623 96.9309C105.165 96.4731 104.479 96.4731 104.021 96.9309L98.299 102.653C97.8413 103.111 97.8413 103.797 98.299 104.255C98.7568 104.713 99.4434 104.713 99.9011 104.255L103.678 100.478V122.908C103.678 123.595 104.135 124.053 104.822 124.053C105.509 124.053 105.966 123.595 105.966 122.908V100.478L109.743 104.255C110.201 104.713 110.887 104.713 111.345 104.255C111.803 103.797 111.803 103.111 111.345 102.653Z" fill="white"/>
<path d="M131.944 84.3426L126.222 78.6207C125.764 78.163 125.078 78.163 124.62 78.6207L118.898 84.3426C118.44 84.8004 118.44 85.487 118.898 85.9448C119.356 86.4025 120.042 86.4025 120.5 85.9448L124.276 82.1683V122.908C124.276 123.595 124.734 124.053 125.421 124.053C126.107 124.053 126.565 123.595 126.565 122.908V82.1683L130.342 85.9448C130.799 86.4025 131.486 86.4025 131.944 85.9448C132.402 85.487 132.402 84.8004 131.944 84.3426Z" fill="white"/>
<path d="M152.543 111.808L146.821 106.086C146.363 105.628 145.676 105.628 145.219 106.086L139.497 111.808C139.039 112.266 139.039 112.952 139.497 113.41C139.954 113.868 140.641 113.868 141.099 113.41L144.875 109.634V122.908C144.875 123.595 145.333 124.053 146.02 124.053C146.706 124.053 147.164 123.595 147.164 122.908V109.634L150.94 113.41C151.398 113.868 152.085 113.868 152.543 113.41C153 112.952 153 112.266 152.543 111.808Z" fill="white"/>
<path d="M194.604 34.7652L198.51 28L202.416 34.7652H194.604Z" fill="white" stroke="#AF2D2D"/>
<circle cx="247" cy="100" r="3" fill="white" stroke="#595B83" stroke-width="2"/>
<path d="M37 77.7814L38.5407 83.0502L38.6459 83.4098H39.0206H44.1441L39.9554 86.7913L39.696 87.0007L39.7895 87.3207L41.3622 92.6985L37.3141 89.4306L37 89.1771L36.6859 89.4306L32.6378 92.6985L34.2105 87.3207L34.304 87.0007L34.0446 86.7913L29.8559 83.4098H34.9794H35.3541L35.4593 83.0502L37 77.7814Z" fill="white" stroke="#333456"/>
<ellipse cx="28.5" cy="33.5" rx="17.5" ry="16.5" fill="#595B83" fill-opacity="0.8"/>
<path d="M26.861 32.8341V24.639C26.861 23.7346 27.5956 23 28.5 23C29.4044 23 30.139 23.7346 30.139 24.639V32.8341C30.139 33.7385 29.4044 34.4731 28.5 34.4731C27.5956 34.4731 26.861 33.7385 26.861 32.8341ZM34.9969 25.4033C34.4659 24.9828 33.6912 25.0751 33.2708 25.6069C32.8504 26.1396 32.9418 26.9126 33.4745 27.3339C35.4243 28.8719 36.5419 31.1751 36.5419 33.6541C36.5419 38.088 32.934 41.696 28.5009 41.696C24.0669 41.696 20.459 38.088 20.459 33.6541C20.459 31.176 21.5757 28.8737 23.5238 27.3365C24.0565 26.9161 24.1478 26.1431 23.7274 25.6095C23.307 25.0768 22.5349 24.9863 22.0005 25.4059C19.458 27.4122 18 30.4187 18 33.6541C18 39.4442 22.7108 44.1541 28.5 44.1541C34.2892 44.1541 39 39.4433 39 33.6541C39 30.4169 37.5403 27.4105 34.9969 25.4033Z" fill="white"/>
<circle cx="223" cy="162" r="24" fill="#595B83" fill-opacity="0.8"/>
<path d="M228.333 147H217.667C216.196 147 215 148.196 215 149.667V174.674C215 176.145 216.196 177.341 217.667 177.341H228.333C229.804 177.341 231 176.145 231 174.674V149.667C231 148.196 229.804 147 228.333 147Z" fill="white"/>
<path d="M219.444 152.333C219.935 152.333 220.333 151.935 220.333 151.444C220.333 150.954 219.935 150.556 219.444 150.556C218.954 150.556 218.556 150.954 218.556 151.444C218.556 151.935 218.954 152.333 219.444 152.333ZM219.444 155.889C219.935 155.889 220.333 155.491 220.333 155C220.333 154.509 219.935 154.111 219.444 154.111C218.954 154.111 218.556 154.509 218.556 155C218.556 155.491 218.954 155.889 219.444 155.889ZM223 155.889C223.491 155.889 223.889 155.491 223.889 155C223.889 154.509 223.491 154.111 223 154.111C222.509 154.111 222.111 154.509 222.111 155C222.111 155.491 222.509 155.889 223 155.889ZM226.556 154.111C226.065 154.111 225.667 154.509 225.667 155C225.667 155.491 226.065 155.889 226.556 155.889C227.046 155.889 227.444 155.491 227.444 155C227.444 154.509 227.046 154.111 226.556 154.111ZM219.444 159.444C219.935 159.444 220.333 159.046 220.333 158.556C220.333 158.065 219.935 157.667 219.444 157.667C218.954 157.667 218.556 158.065 218.556 158.556C218.556 159.046 218.954 159.444 219.444 159.444ZM223 159.444C223.491 159.444 223.889 159.046 223.889 158.556C223.889 158.065 223.491 157.667 223 157.667C222.509 157.667 222.111 158.065 222.111 158.556C222.111 159.046 222.509 159.444 223 159.444ZM226.556 157.667C226.065 157.667 225.667 158.065 225.667 158.556C225.667 159.046 226.065 159.444 226.556 159.444C227.046 159.444 227.444 159.046 227.444 158.556C227.444 158.065 227.046 157.667 226.556 157.667ZM226.556 152.333C227.046 152.333 227.444 151.935 227.444 151.444C227.444 150.954 227.046 150.556 226.556 150.556C226.065 150.556 225.667 150.954 225.667 151.444C225.667 151.935 226.065 152.333 226.556 152.333ZM223 152.333C223.491 152.333 223.889 151.935 223.889 151.444C223.889 150.954 223.491 150.556 223 150.556C222.509 150.556 222.111 150.954 222.111 151.444C222.111 151.935 222.509 152.333 223 152.333ZM223 161.281C220.547 161.281 218.556 163.273 218.556 165.726C218.556 168.179 220.547 170.17 223 170.17C225.453 170.17 227.444 168.179 227.444 165.726C227.444 163.273 225.453 161.281 223 161.281ZM223 166.615C222.502 166.615 222.111 166.224 222.111 165.726C222.111 165.228 222.502 164.837 223 164.837C223.498 164.837 223.889 165.228 223.889 165.726C223.889 166.224 223.498 166.615 223 166.615ZM221.222 172.007H219.444C218.953 172.007 218.556 172.405 218.556 172.896C218.556 173.388 218.953 173.785 219.444 173.785H221.222C221.714 173.785 222.111 173.388 222.111 172.896C222.111 172.405 221.714 172.007 221.222 172.007ZM226.556 172.007H224.778C224.286 172.007 223.889 172.405 223.889 172.896C223.889 173.388 224.286 173.785 224.778 173.785H226.556C227.047 173.785 227.444 173.388 227.444 172.896C227.444 172.405 227.047 172.007 226.556 172.007Z" fill="#FFBEF9"/>
</svg>
